<?xml version="1.0" standalone="no"?>
<!DOCTYPE svg PUBLIC "-//W3C//DTD SVG 20010904//EN"
 "http://www.w3.org/TR/2001/REC-SVG-20010904/DTD/svg10.dtd">
<svg version="1.0" xmlns="http://www.w3.org/2000/svg"
 width="796.000000pt" height="356.000000pt" viewBox="0 0 796.000000 356.000000"
 preserveAspectRatio="xMidYMid meet">
<metadata>
Created by potrace 1.15, written by Peter Selinger 2001-2017
</metadata>
<g transform="translate(0.000000,356.000000) scale(0.100000,-0.100000)"
fill="#000000" stroke="none">
<path d="M1370 2705 c-76 -86 -107 -114 -119 -109 -146 64 -170 68 -341 69
-148 0 -172 -3 -230 -24 -204 -74 -337 -186 -421 -356 -67 -136 -86 -292 -54
-453 17 -84 77 -217 123 -272 l30 -35 -54 -58 c-136 -147 -182 -365 -110 -522
l26 -57 -20 -28 c-39 -55 -79 -156 -91 -228 -38 -232 103 -442 366 -543 131
-51 256 -71 450 -72 153 -1 181 2 280 26 321 80 520 278 541 541 17 202 -103
397 -292 476 -148 61 -314 63 -589 4 -258 -54 -375 -20 -375 110 0 57 34 137
73 173 l22 21 75 -25 c62 -22 99 -27 216 -31 120 -4 152 -1 225 17 256 64 449
254 510 501 19 77 17 250 -5 329 -18 65 -58 151 -96 206 l-21 30 113 107 113
106 -109 104 c-60 56 -114 104 -121 106 -6 1 -58 -49 -115 -113z m-292 -359
c125 -58 191 -167 200 -332 10 -199 -75 -336 -246 -396 -80 -28 -195 -21 -280
17 -154 69 -242 241 -213 418 36 216 171 330 386 324 75 -2 101 -7 153 -31z
m163 -1546 c147 -28 207 -151 134 -276 -50 -85 -140 -141 -283 -175 -73 -18
-106 -20 -207 -16 -236 12 -387 76 -448 192 -25 48 -28 136 -7 179 l15 29 136
-2 c118 -2 158 3 315 33 266 52 263 51 345 36z"/>
<path d="M3469 2675 c-133 -27 -270 -100 -371 -198 -56 -54 -82 -92 -73 -107
4 -6 60 -51 126 -101 l119 -90 53 53 c95 95 225 146 341 134 198 -21 316 -143
316 -327 0 -67 -1 -69 -22 -65 -151 33 -347 50 -463 41 -356 -28 -581 -197
-615 -463 -41 -317 214 -550 576 -527 223 14 393 92 519 239 l49 56 19 -49
c23 -65 96 -145 161 -179 44 -23 66 -27 164 -30 l112 -4 0 160 0 160 -47 7
c-56 8 -78 22 -93 59 -6 17 -10 157 -10 370 0 309 -2 350 -20 420 -43 168
-149 300 -301 375 -46 22 -111 48 -144 57 -83 22 -310 28 -396 9z m389 -931
c59 -9 110 -19 114 -23 14 -12 -40 -141 -86 -205 -54 -76 -102 -116 -188 -156
-141 -66 -338 -53 -410 27 -22 24 -48 86 -48 115 0 111 97 206 248 242 78 20
242 19 370 0z"/>
<path d="M2664 2665 c-34 -7 -87 -26 -118 -41 -56 -27 -146 -105 -182 -157
l-19 -27 3 100 3 100 -175 0 -176 0 0 -790 0 -790 175 0 175 0 0 448 c0 365 3
458 15 505 44 169 156 277 324 313 36 7 69 14 74 14 4 0 7 77 7 170 0 195 10
180 -106 155z"/>
<path d="M5365 2669 c-405 -62 -685 -390 -687 -804 0 -60 5 -138 11 -173 56
-298 251 -526 535 -625 89 -31 95 -32 261 -31 157 0 176 2 250 27 44 14 109
43 145 64 66 39 230 192 230 215 0 7 -57 58 -126 112 l-125 98 -69 -66 c-111
-108 -234 -150 -370 -127 -218 36 -362 199 -385 436 -19 194 62 388 200 480
87 57 162 78 267 72 106 -5 190 -41 280 -119 l59 -51 47 44 c26 24 80 75 119
114 l73 69 -33 34 c-89 94 -227 175 -355 211 -84 23 -244 33 -327 20z"/>
<path d="M6970 2668 c-332 -47 -583 -299 -646 -646 -22 -122 -15 -303 15 -416
60 -217 198 -391 392 -491 136 -70 215 -88 394 -88 232 0 380 45 524 158 57
45 171 168 171 183 -1 6 -131 106 -220 170 -17 12 -26 6 -88 -57 -223 -228
-603 -206 -764 43 -38 60 -78 167 -78 212 l0 24 586 0 587 0 -6 138 c-9 227
-68 404 -177 540 -149 184 -409 270 -690 230z m195 -299 c116 -21 210 -91 262
-194 24 -47 53 -134 53 -162 0 -10 -87 -13 -400 -13 -322 0 -400 3 -400 13 0
36 47 144 85 196 64 86 147 139 255 160 63 12 79 12 145 0z"/>
</g>
</svg>
